<svg width="368" height="193" viewBox="0 0 368 193" fill="none" xmlns="http://www.w3.org/2000/svg">
<rect width="368" height="193" fill="#E9ECEF"/>
<path d="M184 77.552C176.165 72.672 164.224 70.7067 152 70.3333V117.571C162.499 117.891 172.787 119.387 180.445 122.891C182.701 123.925 185.291 123.925 187.557 122.891C195.216 119.387 205.501 117.891 216 117.571V70.3333C203.776 70.7067 191.835 72.672 184 77.552ZM181.333 117.291C177.267 115.835 168.757 113.277 157.333 112.493V75.952C171.083 76.9893 177.405 79.8533 181.333 82.176V117.291ZM210.667 112.496C199.245 113.277 190.733 115.835 186.667 117.293V82.1707C188.981 80.7973 192.192 79.2187 197.333 77.9467V94.3333L201.333 90.3333L205.333 94.3333V76.4907C206.979 76.28 208.744 76.096 210.667 75.952V112.496Z" fill="#868E96"/>
</svg>
